<svg width="32" height="32" viewBox="0 0 32 32" fill="none" xmlns="http://www.w3.org/2000/svg">
  <!-- Heart icon -->
  <path d="M16 28C16 28 4 20 4 12C4 8.68629 6.68629 6 10 6C12.4 6 14.5 7.2 16 9C17.5 7.2 19.6 6 22 6C25.3137 6 28 8.68629 28 12C28 20 16 28 16 28Z" fill="#3B82F6" stroke="#3B82F6" stroke-width="1"/>
  
  <!-- Sparkles -->
  <g opacity="0.8">
    <!-- Top right sparkle -->
    <path d="M24 8L25 6L26 8L28 9L26 10L25 12L24 10L22 9L24 8Z" fill="#60A5FA"/>
    
    <!-- Bottom left sparkle -->
    <path d="M8 22L9 20L10 22L12 23L10 24L9 26L8 24L6 23L8 22Z" fill="#60A5FA"/>
    
    <!-- Small top sparkle -->
    <circle cx="20" cy="4" r="1" fill="#93C5FD"/>
    
    <!-- Small bottom sparkle -->
    <circle cx="12" cy="28" r="1" fill="#93C5FD"/>
  </g>
</svg>
